<svg xmlns="http://www.w3.org/2000/svg" viewBox="90 0 612 612" enable-background="new 90 0 612 612"><style type="text/css">.st0{fill:#005CFF;} .st1{fill:#FFFFFF;}</style><path class="st0" d="M90 0h612v612h-612v-612z"/><path class="st1" d="M352.8 294.4c1.7.9 2.9 1.4 4 1.7 25.5 10.9 39.6 31 43.3 58.3 2.6 17.8.9 35.6-6.3 52.2-13.2 29.6-35.6 48.2-67.7 53.9-14.1 2.6-28.1 3.7-42.2 3.7h-141.2c-.9-3.2-1.1-308.8-.3-316.2l3.4-.3h148.4c16.6 0 33 2 48.5 8.3 29.8 12.1 45.3 34.1 47.9 66 .9 9.2.3 18.4-1.7 27.3-3.4 16.9-12.3 30.1-27 39.3l-4.3 2.6c-1.3 1.2-2.8 2-4.8 3.2zm-137.7 114.8c1.4 0 2.3.3 3.2.3h64c7.2 0 14.3-.6 21.2-2 15.8-3.7 25.8-12.9 29.6-29l.9-4.3c.9-8.6 1.1-17.2-2-25.5-4.3-11.2-12.9-17.2-24.1-20.4-8-2.3-16.1-2.9-24.4-2.9h-65.1l-3.2.3v83.5h-.1zm0-136.6h53.9c6.9 0 13.8 0 20.7-.3 8.3-.3 16.1-2.3 23.5-6.3 6.9-3.4 11.2-9.2 13.2-16.4 2-6.9 2-13.5.9-20.4-2-12.3-9.2-19.8-21.2-22.7-9.8-2.3-19.8-3.4-29.8-3.4h-57.4l-3.4.3c-.4 23-.4 45.6-.4 69.2zm434.7 85.2h-164.4c-.9 3.4 0 6.3.6 9.2.6 4 1.4 8 2.6 12.1 6 18.9 19.5 29.8 38.5 33.9 8.6 1.7 17.5 1.7 26.4.3 13.5-2.3 23.8-9.5 30.7-21.2 1.7-2.9 3.4-3.7 6.9-3.7 16.9.3 34.1 0 51.1 0h4.6c-.9 8.3-3.7 15.5-7.7 22.4-11.2 18.1-25.8 32.4-45.3 41.3-12.6 5.7-26.1 8.6-39.9 9.8-16.9 1.4-33.6.3-49.9-4.3-17.5-4.9-33-13.5-46.8-25.3-13.5-11.8-21.5-26.7-26.1-43.6-5.2-18.9-6.3-38.2-5.2-57.4.9-14.1 3.2-27.8 8-41 13.2-35.3 38.7-56.8 75.2-64.9 21.2-4.9 42.5-4 63.7 1.1 31.3 7.7 52.8 27 66.3 55.7 6 13.2 9.5 27 10.3 41.3.6 10.6.6 21.5.9 32.1-.2.2-.2.8-.5 2.2zm-61.1-39.6c-.3-3.2-.6-6-1.1-8.9-3.7-19.2-15.2-31.6-33.9-37-6.9-2-14.1-2.3-21.2-1.7-18.1 1.1-31.3 9.8-39.3 26.1-2.9 5.7-4.6 11.5-5.7 17.8-.3 1.1-.3 2.6-.6 4 34.1-.3 67.6-.3 101.8-.3zm12-125.7h-126.5c-.9-2.9-1.1-26.7-.3-31.3h126.6c.2 10.4.2 20.7.2 31.3z"/></svg>