<svg xmlns="http://www.w3.org/2000/svg" viewBox="0 0 245.1 245.1" enable-background="new 0 0 245.1 245.1"><style type="text/css">.st0{fill:#2C4485;} .st1{fill:#FFFFFF;}</style><path class="st0" d="M0 0h245.1v245.1h-245.1z"/><path class="st1" d="M162.6 130.9h-26.4v80.4h-33.3v-80.4h-25.1c-.7 0-1.3-.6-1.3-1.3v-30.1c0-.7.6-1.3 1.3-1.3h25.1v-23.6c0-22.8 12.8-40.8 41.8-40.8 8.4 0 15.5 0 21.3.6 1.4.2 2.5 1.4 2.5 2.8v23.4c0 1.6-1.3 2.8-2.9 2.8-4-.1-8.7-.1-14.1-.1-13.7 0-15.5 6.9-15.5 15.5 0 11.1-.1 19.3-.1 19.3l29.5.1c.6 0 1.1.5 1.1 1.2l-3 30.5c.1.6-.4 1-.9 1z"/></svg>