<svg xmlns="http://www.w3.org/2000/svg" viewBox="0 0 245.1 245.1" enable-background="new 0 0 245.1 245.1"><style type="text/css">.st0{fill:#007FB2;} .st1{fill:#FFFFFF;}</style><path class="st0" d="M0 0h245.1v245.1h-245.1z"/><path class="st1" d="M37.6 93.2h35.3v116.8h-35.3zm173.2 49.2v68.2h-37.1v-68.2c-.1-5.5-2.3-10.4-5.9-14.1-3.7-3.7-8.8-6-14.4-6-11.2 0-20.3 9.1-20.3 20.3v18.5c-.4-.5.1 49.3.1 49.3h-36.7v-117h35.3v15c8-10.2 20.7-16.8 35-16.8 31.2 0 44 21 44 44.5v6.3z"/><circle class="st1" cx="55.3" cy="55.5" r="21"/></svg>