<svg xmlns="http://www.w3.org/2000/svg" viewBox="4.8 94.8 602.4 602.4" enable-background="new 4.8 94.8 602.4 602.4"><style type="text/css">.st0{fill:none;stroke:#FFFFFF;stroke-width:30;stroke-miterlimit:10;} .st1{fill:#FFFFFF;}</style><circle class="st0" cx="306" cy="396" r="286.2"/><path class="st1" d="M474.8 269.5l-34.8-34.8c-24.9-24.5-64.8-24.5-89.7 0l-176.7 177.5-32 155.8 156.6-31.6 176.7-177.5c24.8-24.6 24.8-64.9-.1-89.4zm-110.3-20.6c17-17 44.7-17 61.7 0l34.8 34.8c17 17 17 44.7 0 61.7l-6.3 6.3-96.9-96.5 6.7-6.3zm-110.3 211.5c-.4 1.2-1.2 1.6-2 2 .8-.8 1.6-1.2 2-2zm71.6-170.4l19.4-19.4 94.1 93.7-19.4 19.4-94.1-93.7zm-119.8 117.9l-6.7-7.1 6.7 7.1 104.4-104.8 43.9 43.5-106.8 107.1-1.2.8-.8.4c-9.1 5.5-24.9 4.3-35.6-6.3-11.4-11.5-11.8-32.4-3.9-40.7zm-14.7 130l-19.3-19.3 14.6-70c2.4 5.1 5.9 10.3 9.9 14.2 10.7 10.7 25.7 16.2 39.5 15.4-1.2 13.4 3.6 27.7 14.2 38.3 2.8 2.8 6.3 5.5 9.9 7.5l-68.8 13.9zm110.4-33.2c-8.7 7.5-26.9 7.9-37.6-2.4-9.5-9.5-11.5-23.7-4.7-32.8l108.7-109.1 38.7 38.7-105.1 105.2c.3.4.3.4 0 .4zm6.3 7.9l1.6-1.6-1.6 1.6zm-53.4-51.8l-2.4 2c.8-1.2 1.6-1.6 2.4-2zm7.9 6c0 .4-.4.8-.4.8-.8.8-1.6 1.6-2.4 2l2.8-2.8zm39.5 37.5l-.4.4.4-.4z"/></svg>