<svg xmlns="http://www.w3.org/2000/svg" viewBox="0 0 154.8 154.8">
  <circle cx="77.4" cy="77.4" r="72.4" fill="none" stroke="#FFF" stroke-width="10" stroke-miterlimit="10"/>
  <path fill="#FFF" d="M120.1 45.4l-8.8-8.8c-6.3-6.2-16.4-6.2-22.7 0L43.9 81.5l-8.1 39.4 39.6-8L120.1 68c6.3-6.2 6.3-16.4 0-22.6zm-27.9-5.2c4.3-4.3 11.3-4.3 15.6 0l8.8 8.8c4.3 4.3 4.3 11.3 0 15.6l-1.6 1.6-24.5-24.4 1.7-1.6zM64.3 93.7c.1.1.1.1 0 0-.1.3-.3.4-.5.5.2-.2.4-.3.5-.5zm18.1-43.1l4.9-4.9 23.8 23.7-4.9 4.9-23.8-23.7zM52.1 80.4l-1.7-1.8 1.7 1.8 26.4-26.5 11.1 11-27 27.1c-.1.1-.2.1-.3.2-.1 0-.1.1-.2.1-2.3 1.4-6.3 1.1-9-1.6-2.9-2.9-3-8.2-1-10.3zm-3.7 32.9l-4.9-4.9 3.7-17.7c.6 1.3 1.5 2.6 2.5 3.6 2.7 2.7 6.5 4.1 10 3.9-.3 3.4.9 7 3.6 9.7.7.7 1.6 1.4 2.5 1.9l-17.4 3.5zm27.9-8.4c-2.2 1.9-6.8 2-9.5-.6-2.4-2.4-2.9-6-1.2-8.3l27.5-27.6 9.8 9.8-26.6 26.6c.1.1.1.1 0 .1zm1.6 2l.4-.4-.4.4z"/>
</svg>
