<svg xmlns="http://www.w3.org/2000/svg" viewBox="0 0 183.3 183.3" enable-background="new 0 0 183.3 183.3"><style type="text/css">.st0{fill:#FFFFFF;} .st1{fill:none;stroke:#FFFFFF;stroke-width:10;stroke-miterlimit:10;}</style><path class="st0" d="M18.5 69.5l-5.9-.2-1.4.6 1.6 1.6-3.2.8v-7.4l7.9 3.2 1 1.4zm-2.7 20.3l-2.2 1.4-1.2-2.5 3.4 1.1zm10.9 4.5l-.7 1.4-2.7-1.8-1.8 1-4.3-2.5.4-1.2 4.9 2 1.9-1 2.3 2.1zm52.5 12.5l-1.6 1.8-.4 3.5-11.9 12.7c.4.7.5 1.6.4 2.5l-1.6 1.6 1.4 1.7-1.2 1.4-3.1-3.5v-5.7l1.9-11.2-2.5-1.2-2.7-6.8 1.1-1.6v-2h-2.7l-1.2-2.4-1.6.2-5.5-3.1-1.7-2.2h-2.2l-5.9-7.8.2-3.9-2-2.9-1.4.4-1-2 1.2.2-2.9-3.1-3.9-.6-9.4 4.7 3.3-3.3-2.4-1.8-1-6.6 3.9-2 18.8 2-3.5-2.5.8-3.3 18.8-7.2 7.3.4-6.4 7.3 8.6 7-2.7 2.9-5.1-.9.6-3.2h-1.8l-.7 2.2.6 1.9-3.9-.4-2 2.7 1.4 1.2 2.7.8 2.5 2.9.9-2.9-.6-.6v-3.1l6.1 1 4.9 5.9-6.9 3.9v2.1l-1.2-.2-1 1.2.2 1.6-2.8 2.4.8 2.5h-1.4l-1.2-1.7h-4.3l-1.6 2.9 1.6 1.6h.7l1.6-.9 1 .6-.4 2.2 1.6.2.4 2.4h2.8l2.7-1.2 1.9.7 3.7.1.2 2.4h3l.4 2.8h2l5.3 3.3zm-44.4 6.5l-1.4.7-1.8-1.2 1.4-1.7 1.8 2.2zm3.1 1.7l-1.2 1.2-1.7-1.2 1.2-1.2 1.7 1.2zm22.9-21.9l-.4 1.2-3-.6.3-1.5 3.1.9zm1.2-.8l-1.6-.8v-1.4l1.6 2.2zm5.7 3.8l-1 .4-4.9-1.7.4-1 5.5 2.3zm21-41.3l-2.3 2-.4 4.8-3.5 5.5-5.6 1.7-1.4 3.3-2.6-.1-2.9-4.5-1.2-6-2.4-1.8-2.5.8-1.4-1.8 4.3-5.3 17.6-2.2 4.3 3.6zm.9 14.3l-3.6 2.5-2.1-3.2 3.9-1 1.8 1.7zm84 3.1l-5.5.6.2 2-3.3 4.3-.6-3.9 1.8-2.4-6.3.6-3.7 1.9-.4 1.6 2.6-.6.2 3.7-1.8.2-.6 1.8-3.5 2.4.6 1.6-2.3 1.6-.8-2.7-1.6.8.4 5.3-6.6 3.9 1.7 2.5-2.9 1.7-1.2-2.3-.6.2.6 2.5 2.4 1.6-.8.8-1.6-.4.4 1.2 1.4.2.8 2.4 3.5 1.4.2 1.2-4.1-.7-5.7-6.3 2.4.2-3.3-7.3v-2h-.9l-.4 1.8-3.3 2.5v2.4l-2.5.7-1.6-4.5-1.1-.4.2-2.6-9.4-1.7 1.6 2.5 1.6-.6 1.7 1.7-1.7 2.2-4.2 1.6-4.3-8.2h-1.2l-.2 1.6 2.9 5.8 2.2 1.6 3.3-.2-6.1 8.8.7.8.2 2.9-1.8 1.4-.2 2.2-4.7 5.7-3.7-.2-3.3-9 1-1.4v-2.4l-2.8-3.3 1.2-.8-2.8-1.7-5.5-.2-3.1-2.8-.2-6 7.1-6.1 3.9-.4 1 1.1-.2 1 3.2 1 1.6-1.4 1.2 1 4.3.2.8-.8v-2.4l-1.7 2.4-2.4-3.1.4 3.1-2.2-1.6-.4-2.4-2.6-3-.5.5 2.1 2.9-1.4 2-.6-2.4-2.4-1.6-1.4 1.2-.8-.4-4.5 4.2-1.6-4.3 3.2.2.6-1.4-1.2-1.2 2-1.6 1.2-.2 2.2-2-.6-1.6 1.2-.6.8 1.2 3.9-.2.2-1.1 4.3-1.6-.7-.9-2.7.9-.8-1.7 2-1.6-1.2-1.2-2.5 3.3.9.8-.2 2-2.5.7-.6-1.6-2.7.4.2-2.4 4.5-6 4.9-1.2 7.4 1.7-1.4 2-2.9-.2 1.9 2 5.7-3.7h3.7l-2.5-2.9 2.9-3 4.1-1.7.6 1.4-3.9 1.4-2.2 2.4 4.5 2.7-.7-1.4 2.7-2.4 4.9 1.2.7-1.6 8.8-3.3 6.1 1.4-4.5 2.5 13.9 1.4 2.4-2.4 1.1 2.1 6.7.6 1.9 1 5.5-.6v7.5zm-82.1 4.9l-1.2 1.4-1.3-1.2 1.1-2 1.4 1.8zm3.5-.6l-.2 1.6h-2.7l.8-1.6-1.8-1.9 1.4-1.4.8 1.9 1.7 1.4zm5.6 9.5l-1.2-.4.7-1.2.5 1.6zm12.7-2.8l-1.4-2.3-1.4-.2.1 1.1-1.2.1-1-1.3-1.7 2.2.3 1.4 1.6-1.2h1.2l3.5.2zm4.2 26.4l-1.7 5.6-2.5-1.7.7-2.5 2.5-2 1 .6zm1.8-23.8l-1.2-2.5 1.1-1.4-.6-.6-1.1.9.2 4.2 1.6-.6zm3.6-2.5l-.2-1.6-1 .1.1 1.6 1.1-.1zm25.6 19l-1.6 3.1-2.9-.7.2-2.4 2.5-2.5 1.8 2.5zm15.4 13.7l-3.3 6.3-2.7-.2-5.3-3.9-.2 1-6.4 1.4.7-2.7-1.4-.6v-3.3l8.4-5.5 3.9 2.5.2-2.2 1.2-.2 4.9 7.4zm-12.5-13.1l-1.6 2.7-1.4-.2 1.4-3.1 1.6.6zm8.8-19.9l-2.5 4.1-4.1 2.1-1.2-1.4 4.1-2.3 1.4-4 2.3 1.5zm1.5 25l-8.2-1.7-.2-2.9 7.7 1.9.7 2.7zm-2.1-16.3l-1.4 1-1.2-3.7.8.2 1.8 2.5zm5-11.3l-3.3 1.4-.8-1 3-1.4 1.1 1zm8.9 43.4l-2.9 3.5-1.4-.2-.4-2 3.5-3.9-1.4-2.2.8-1.2 1.4 2 .4 4z"/><circle class="st1" cx="91.6" cy="91.6" r="86.6"/></svg>