<svg xmlns="http://www.w3.org/2000/svg" viewBox="0 0 245.1 245.1" enable-background="new 0 0 245.1 245.1"><style type="text/css">.st0{fill:#1AB6E9;} .st1{fill:#FFFFFF;}</style><path class="st0" d="M0 0h245.1v245.1h-245.1z"/><path class="st1" d="M87.4 165.1c-2.5-.4-4.7-.7-6.8-1.3-10.6-2.8-18.4-9.2-23.5-18.9-1-1.8-1.8-3.7-2.6-5.6-.4-.9-.3-1.2.8-1.2 4 .1 8 0 12 0h.9c.3 0 .7 0 .8-.4.1-.5-.4-.5-.7-.6-3.3-1.2-6.4-2.7-9.3-4.7-9.4-6.1-14.7-14.9-16.7-25.9-.4-2-.7-4.1-.7-6.1v-.8c2.2.7 4.4 1.4 6.6 2l7.2 2.2c.4.1.8.6 1.2 0 .4-.6-.2-.9-.6-1.2-3.8-3.6-7-7.5-9.4-12.1-3.7-6.9-5.1-14.3-4.3-22.1.5-5.2 1.9-10.1 3.7-14.9.2-.4.4-.8.6-1.4l3.5 4.2c12.9 15.3 28.4 26.7 47.5 32.8 6.9 2.2 13.9 3.6 21.1 4.3.9.1 1.1-.1 1.1-1 .1-3.6.2-7.1.5-10.7.7-9.3 3.8-17.7 10.6-24.4 5.3-5.3 11.9-8.2 19.2-9.5 11.2-2 20.8 1.4 29.1 8.9 3.9 3.5 3.4 3.2 8.1 1.6l16.4-5.8c.3-.1.6-.3 1-.1-.6 2.2-1.6 4.3-2.7 6.3-2.5 4.5-5.9 8.2-9.9 11.4-.4.3-1.1.5-.7 1.2.3.6.9.2 1.3.1l15.5-4.2c.3-.1.7-.2 1-.2.2.3.1.4 0 .6-3.8 5.8-8.2 11-13.7 15.2-2.2 1.7-3.3 3.8-3.3 6.5-.2 10.6-1.5 21-4.2 31.2-4.2 16.1-11.7 30.6-22.8 43.1-9.5 10.7-20.4 19.5-33.3 25.6-8.8 4.2-18.1 6.7-27.8 8-6.4.8-12.8.9-19.2.6-17.1-.7-32.9-5.8-47.3-15.1-.5-.3-1-.7-1.5-1.1-.2-.1-.4-.2-.5-.4 19.4 1.2 36.4-4.1 51.8-16.1z"/></svg>