<?xml version="1.0" encoding="utf-8"?>
<!-- Generator: Adobe Illustrator 18.1.1, SVG Export Plug-In . SVG Version: 6.00 Build 0)  -->
<!DOCTYPE svg PUBLIC "-//W3C//DTD SVG 1.1//EN" "http://www.w3.org/Graphics/SVG/1.1/DTD/svg11.dtd">
<svg version="1.1" id="Layer_1" xmlns="http://www.w3.org/2000/svg" xmlns:xlink="http://www.w3.org/1999/xlink" x="0px" y="0px"
	 viewBox="216 0 792 792" style="enable-background:new 216 0 792 792;" xml:space="preserve">
<style type="text/css">
	.st0{fill:#FFFFFF;}
</style>
<path class="st0" d="M498.4,533.5c-8.1-1.3-15.2-2.3-22-4.2c-34.3-9-59.5-29.7-75.9-61.1c-3.2-5.8-5.8-12-8.4-18.1
	c-1.3-2.9-1-3.9,2.6-3.9c12.9,0.3,25.9,0,38.8,0h2.9c1,0,2.3,0,2.6-1.3c0.3-1.6-1.3-1.6-2.3-1.9c-10.7-3.9-20.7-8.7-30.1-15.2
	c-30.4-19.7-47.5-48.1-54-83.7c-1.3-6.5-2.3-13.2-2.3-19.7v-2.6c7.1,2.3,14.2,4.5,21.3,6.5l23.3,7.1c1.3,0.3,2.6,1.9,3.9,0
	s-0.6-2.9-1.9-3.9c-12.3-11.6-22.6-24.2-30.4-39.1c-12-22.3-16.5-46.2-13.9-71.4c1.6-16.8,6.1-32.6,12-48.1c0.6-1.3,1.3-2.6,1.9-4.5
	l11.3,13.6c41.7,49.4,91.8,86.3,153.5,106c22.3,7.1,44.9,11.6,68.2,13.9c2.9,0.3,3.6-0.3,3.6-3.2c0.3-11.6,0.6-22.9,1.6-34.6
	c2.3-30.1,12.3-57.2,34.3-78.8c17.1-17.1,38.5-26.5,62-30.7c36.2-6.5,67.2,4.5,94,28.8c12.6,11.3,11,10.3,26.2,5.2l53-18.7
	c1-0.3,1.9-1,3.2-0.3c-1.9,7.1-5.2,13.9-8.7,20.4c-8.1,14.5-19.1,26.5-32,36.8c-1.3,1-3.6,1.6-2.3,3.9c1,1.9,2.9,0.6,4.2,0.3
	l50.1-13.6c1-0.3,2.3-0.6,3.2-0.6c0.6,1,0.3,1.3,0,1.9c-12.3,18.7-26.5,35.5-44.3,49.1c-7.1,5.5-10.7,12.3-10.7,21
	c-0.6,34.3-4.8,67.9-13.6,100.8c-13.6,52-37.8,98.9-73.7,139.3c-30.7,34.6-65.9,63-107.6,82.7c-28.4,13.6-58.5,21.6-89.8,25.9
	c-20.7,2.6-41.4,2.9-62,1.9c-55.3-2.3-106.3-18.7-152.8-48.8c-1.6-1-3.2-2.3-4.8-3.6c-0.6-0.3-1.3-0.6-1.6-1.3
	C393.7,589.4,448.7,572.3,498.4,533.5L498.4,533.5z"/>
</svg>
