<?xml version="1.0" encoding="utf-8"?>
<!-- Generator: Adobe Illustrator 18.1.1, SVG Export Plug-In . SVG Version: 6.00 Build 0)  -->
<!DOCTYPE svg PUBLIC "-//W3C//DTD SVG 1.1//EN" "http://www.w3.org/Graphics/SVG/1.1/DTD/svg11.dtd">
<svg version="1.1" id="Layer_1" xmlns="http://www.w3.org/2000/svg" xmlns:xlink="http://www.w3.org/1999/xlink" x="0px" y="0px"
	 viewBox="356.1 276.4 80.4 61" enable-background="new 356.1 276.4 80.4 61" xml:space="preserve">
<path fill="#FFFFFF" d="M430.5,288h-68.4c-3,0-5.5-2.5-5.5-5.5l0,0c0-3,2.5-5.5,5.5-5.5h68.4c3,0,5.5,2.5,5.5,5.5l0,0
	C436,285.5,433.5,288,430.5,288z"/>
<path fill="#FFFFFF" d="M430.5,312.4h-68.4c-3,0-5.5-2.5-5.5-5.5l0,0c0-3,2.5-5.5,5.5-5.5h68.4c3,0,5.5,2.5,5.5,5.5l0,0
	C436,309.9,433.5,312.4,430.5,312.4z"/>
<path fill="#FFFFFF" d="M430.5,336.9h-68.4c-3,0-5.5-2.5-5.5-5.5l0,0c0-3,2.5-5.5,5.5-5.5h68.4c3,0,5.5,2.5,5.5,5.5l0,0
	C436,334.4,433.5,336.9,430.5,336.9z"/>
</svg>
