<?xml version="1.0" encoding="utf-8"?>
<!-- Generator: Adobe Illustrator 18.1.1, SVG Export Plug-In . SVG Version: 6.00 Build 0)  -->
<!DOCTYPE svg PUBLIC "-//W3C//DTD SVG 1.1//EN" "http://www.w3.org/Graphics/SVG/1.1/DTD/svg11.dtd">
<svg version="1.1" id="Layer_1" xmlns="http://www.w3.org/2000/svg" xmlns:xlink="http://www.w3.org/1999/xlink" x="0px" y="0px"
	 viewBox="365.9 275.2 61.7 61.7" enable-background="new 365.9 275.2 61.7 61.7" xml:space="preserve">
<path fill="#FFFFFF" d="M425.9,335.2c-1.1,1.1-2.6,1.7-4.1,1.7c-1.5,0-2.9-0.6-4.1-1.7l-21.1-21l-21,21c-2.2,2.2-5.9,2.2-8.1,0
	c-1.1-1.1-1.7-2.6-1.7-4c0-1.5,0.6-2.9,1.7-4.1l21-21l-21-21c-2.2-2.2-2.2-5.9,0-8.1c1.1-1.1,2.6-1.7,4-1.7c1.5,0,3,0.6,4.1,1.7
	l21,21.1l21-21.1c2.2-2.2,5.9-2.2,8.1,0c1.1,1.1,1.7,2.6,1.7,4.1c0,1.5-0.6,2.9-1.7,4l-21,21l21.1,21.1
	C428.1,329.3,428.1,333,425.9,335.2z"/>
</svg>
