<svg xmlns="http://www.w3.org/2000/svg" viewBox="230.8 14.8 762.4 762.4" enable-background="new 230.8 14.8 762.4 762.4"><style type="text/css">.st0{fill:#FFFFFF;} .st1{fill:none;stroke:#FFFFFF;stroke-width:10;stroke-miterlimit:10;}</style><path class="st0" d="M663.9 176.8c-15.1-5.9-30.5-9.1-46.4-9.1-24.2 0-44 7.5-59.5 23l-134 134c7.5 7.5 7.9 20.2 0 28.1l-36.9 37.3-85.6-85.6 35.3-35.3c8.7-8.7 22.6-8.7 31.3 0l133.2-133.6c18.2-18.2 38.1-27.4 59.1-27.4 35.3 0 69.8 23 103.5 68.6zm254.5 43.6c2.4 8.3 3.6 16.6 3.6 25 0 24.6-8.7 45.6-25.8 62.6-17 17-38.1 25.8-62.6 25.8-4.8 0-9.5-.4-13.9-1.2-8.3-1.2-17 1.2-23 7.1l-76.1 76.5 164.5 157c17.4 16.6 17.4 44 .8 61l-16.6 16.6c-17 17-44.4 16.6-61-.8l-157.5-164.4-71.7 72.1c-5.9 5.9-8.7 14.3-7.5 22.6.8 4.8 1.2 9.5 1.2 14.3 0 25-8.7 46-25.8 63-17 17-38.1 25.8-63 25.8-8.3 0-16.6-1.2-25-3.6l48.8-48.8c10.7-10.7 10.7-27.7 0-38.5l-28.5-28.5c-10.7-10.7-27.7-10.7-38.5 0l-48.8 48.8c-2.4-8.3-3.6-16.6-3.6-25 0-24.6 8.7-45.6 25.8-62.6s38.5-25.8 63.4-25.8c4.4 0 8.7.4 13.1.8 7.9 1.2 16.3-1.6 21.8-7.5l74.5-74.1-122.1-126.9 61.4-61.4 126.9 121.7 78.1-78.5c5.9-5.9 8.3-13.9 7.5-21.8-.4-4-.8-8.3-.8-12.7 0-25 8.7-46.4 25.8-63.4s38.1-25.8 62.6-25.8c8.7 0 17 1.2 25.4 3.6l-47.2 47.2c-11.5 11.5-11.5 30.1 0 42l24.6 25c11.5 11.5 30.5 11.5 42 0l47.2-47.2zm-455.4-53.5l-61.4 61c-6.3-6.3-6.3-17 0-23.8l37.7-37.7c6.2-6.3 16.9-6.3 23.7.5z"/><circle class="st1" cx="612" cy="396" r="376.2"/></svg>