<svg xmlns="http://www.w3.org/2000/svg" viewBox="0 0 245.1 245.1" enable-background="new 0 0 245.1 245.1"><style type="text/css">.st0{fill:#FFFFFF;}</style><path class="st0" d="M136.1 85.1c3.7-11.6 8.6-22.5 17.4-31.1 7.2-7 15.8-11 25.8-12.3 5.9-.8 11.8-.9 17.5.6 9.5 2.4 15.1 8.8 17.5 18 2.9 10.9 2.4 21.7-.8 32.5-2.9 9.8-7.4 18.8-12.6 27.5-12.8 21.4-27.6 41.1-44.9 59-6.8 7.1-14.3 13.5-22.9 18.4-5.3 3-10.9 5.3-17 6-6.1.7-11.4-1.1-15.9-5.2-4.6-4.2-7.7-9.4-10.5-14.8-3.5-6.8-5.4-14.1-7.4-21.4-4.6-17-9-34-14-50.9-1.5-5.2-3.5-10.3-6.1-15-1.1-2.1-2.4-4.1-4.1-5.8-.9-.9-1.9-1.8-3.1-2.4-1.7-.8-3.3-.9-5 0-4.1 2.2-7.9 4.8-11.6 7.5-.7.5-1.1.6-1.7-.2l-7.5-9.8c-.4-.5-.6-.8 0-1.3 11.8-10.1 22.9-21.2 35.2-30.8 4-3.2 8.3-6 13-8.2 10.2-4.6 20.6-1.4 26.6 8 3.2 5 5 10.6 6 16.4l4.9 29.2c2 11.8 4.2 23.5 8.2 34.8.8 2.4 1.9 4.7 3.2 6.9.7 1.2 1.5 2.3 2.6 3.3 1.9 1.7 3.8 2 6.1.7 2.4-1.3 4.2-3.1 5.9-5.2 8.3-10.3 15.3-21.4 20-33.8 1.6-4.2 2.3-8.7 1.7-13.2-.7-6.1-4.6-9.7-10.8-10.1-4.9-.3-9.6.6-14.2 2.4-.5.1-.9.4-1.5.3z"/></svg>